<svg width="320" height="180" viewBox="0 0 320 180" fill="none" xmlns="http://www.w3.org/2000/svg">
  <defs>
    <linearGradient id="dash" x1="65" y1="33" x2="253" y2="154" gradientUnits="userSpaceOnUse">
      <stop stop-color="#F7FAFF"/>
      <stop offset="1" stop-color="#DCE7FF"/>
    </linearGradient>
    <linearGradient id="shield" x1="170" y1="54" x2="237" y2="131" gradientUnits="userSpaceOnUse">
      <stop stop-color="#2F6BFF"/>
      <stop offset="1" stop-color="#071F73"/>
    </linearGradient>
  </defs>
  <ellipse cx="160" cy="154" rx="96" ry="12" fill="#0A2B88" opacity=".1"/>
  <rect x="64" y="32" width="190" height="122" rx="24" fill="url(#dash)" stroke="#C4D3FF" stroke-width="2"/>
  <rect x="86" y="58" width="66" height="72" rx="16" fill="#12369C"/>
  <path d="M101 83h35M101 102h25" stroke="#EAF0FF" stroke-width="7" stroke-linecap="round"/>
  <path d="M202 50l45 17v30c0 28-19 45-45 55-26-10-45-27-45-55V67l45-17z" fill="url(#shield)"/>
  <path d="M181 98l15 15 30-38" stroke="#F5B82E" stroke-width="10" stroke-linecap="round" stroke-linejoin="round"/>
  <path d="M82 141h72M171 141h49" stroke="#5275D9" stroke-width="7" stroke-linecap="round"/>
  <rect x="243" y="38" width="34" height="34" rx="12" fill="#F5B82E"/>
  <path d="M254 56h12M260 50v12" stroke="#fff" stroke-width="5" stroke-linecap="round"/>
</svg>
